<svg xmlns="http://www.w3.org/2000/svg" viewBox="0 0 640 280" role="img" aria-labelledby="title desc">
  <title id="title">Ride sharing car</title>
  <desc id="desc">A stylized car with mountains and road in the background.</desc>
  <defs>
    <linearGradient id="sky" x1="0" y1="0" x2="0" y2="1">
      <stop offset="0%" stop-color="#dff5f3" />
      <stop offset="100%" stop-color="#f8fcfb" />
    </linearGradient>
    <linearGradient id="body" x1="0" y1="0" x2="1" y2="1">
      <stop offset="0%" stop-color="#53b8af" />
      <stop offset="100%" stop-color="#2f6a4a" />
    </linearGradient>
  </defs>

  <rect width="640" height="280" fill="url(#sky)" />
  <path d="M0 180 L120 130 L220 170 L330 120 L430 170 L540 125 L640 165 L640 280 L0 280 Z" fill="#cfe9df" />
  <rect y="210" width="640" height="70" fill="#d8e5df" />

  <g transform="translate(90 98)">
    <rect x="40" y="50" width="370" height="76" rx="35" fill="url(#body)" />
    <path d="M118 50 H300 C320 50 334 42 346 28 L370 0 H210 C188 0 175 6 162 19 Z" fill="#3f8e9a" />
    <rect x="176" y="16" width="77" height="32" rx="9" fill="#ebf7ff" />
    <rect x="260" y="16" width="77" height="32" rx="9" fill="#ebf7ff" />
    <circle cx="130" cy="127" r="35" fill="#21383f" />
    <circle cx="350" cy="127" r="35" fill="#21383f" />
    <circle cx="130" cy="127" r="16" fill="#f4f7f7" />
    <circle cx="350" cy="127" r="16" fill="#f4f7f7" />
    <rect x="72" y="78" width="42" height="18" rx="9" fill="#f7d17a" />
    <rect x="360" y="78" width="42" height="18" rx="9" fill="#f7d17a" />
  </g>

  <rect y="247" width="640" height="8" fill="#88a89d" />
</svg>
